HIERARCHY
ROOT ui
{
	 OFFSET 0 0 0
	 CHANNELS 3 XPosition YPosition Z Position
	 EndSite
	 {
	 OFFSET 0 -1 0
	 }
}
ROOT li
{
	 OFFSET 0 0 0
	 CHANNELS 3 XPosition YPosition Z Position
	 EndSite
	 {
	 OFFSET 0 -1 0
	 }
}
ROOT ul
{
	 OFFSET 0 0 0
	 CHANNELS 3 XPosition YPosition Z Position
	 EndSite
	 {
	 OFFSET 0 -1 0
	 }
}
ROOT ll
{
	 OFFSET 0 0 0
	 CHANNELS 3 XPosition YPosition Z Position
	 EndSite
	 {
	 OFFSET 0 -1 0
	 }
}
ROOT tt
{
	 OFFSET 0 0 0
	 CHANNELS 3 XPosition YPosition Z Position
	 EndSite
	 {
	 OFFSET 0 -1 0
	 }
}
ROOT tb
{
	 OFFSET 0 0 0
	 CHANNELS 3 XPosition YPosition Z Position
	 EndSite
	 {
	 OFFSET 0 -1 0
	 }
}
ROOT td
{
	 OFFSET 0 0 0
	 CHANNELS 3 XPosition YPosition Z Position
	 EndSite
	 {
	 OFFSET 0 -1 0
	 }
}
ROOT v
{
	 OFFSET 0 0 0
	 CHANNELS 3 XPosition YPosition Z Position
	 EndSite
	 {
	 OFFSET 0 -1 0
	 }
}
ROOT bn
{
	 OFFSET 0 0 0
	 CHANNELS 3 XPosition YPosition Z Position
	 EndSite
	 {
	 OFFSET 0 -1 0
	 }
}
MOTION
Frames: 21
Frame Time: 0.002
0.013352766036987304	0.0014174959659576415	0		0.5322323608398437	-2.6013466796875	0		-0.933774658203125	0.17967178344726562	0		-0.2261492462158203	-3.372189453125	0		1.6956090087890625	-1.3708575439453126	0		2.866772705078125	-0.437469970703125	0		3.975576171875	0.22237039184570312	0		5.989806640625	0.5658108520507813	0		-0.2225681610107422	5.92731591796875	0		
0.013528487205505372	0.0013326129913330078	0		0.5112783813476562	-2.612206298828125	0		-0.9376411743164063	0.17563475036621093	0		-0.2249673614501953	-3.3702841796875	0		1.6787144775390626	-1.376765869140625	0		2.845720458984375	-0.4583394470214844	0		4.0044814453125	0.1969566650390625	0		5.99880029296875	0.5486022338867188	0		-0.22236534118652343	5.92723193359375	0		
0.00966877269744873	-0.0026859850883483886	0		0.5285142822265625	-2.606454833984375	0		-0.9095453491210937	0.16727415466308593	0		-0.2217664337158203	-3.3673779296875	0		1.7028038330078126	-1.3850946044921875	0		2.816892822265625	-0.4590999755859375	0		3.967603515625	0.19127951049804687	0		5.98707373046875	0.5566434326171875	0		-0.2221561279296875	5.9271708984375	0		
0.013901868820190429	0.0012315820455551147	0		0.48668569946289064	-2.607041015625	0		-0.9773939819335937	0.16397544860839844	0		-0.34735479736328123	-3.345052734375	0		1.702988525390625	-1.38514013671875	0		2.852699951171875	-0.4945376281738281	0		3.9636435546875	0.1772706298828125	0		6.00425390625	0.5553970947265625	0		-0.20585719299316407	5.934958984375	0		
0.017126848220825195	0.0041837248802185055	0		0.5189114990234375	-2.603404541015625	0		-0.9393004760742187	0.15455235290527344	0		-0.32313092041015623	-3.341326904296875	0		1.67013525390625	-1.388802978515625	0		2.847205322265625	-0.46549859619140627	0		3.97269580078125	0.164147216796875	0		6.00562158203125	0.5713510131835937	0		-0.20663467407226563	5.93595556640625	0		
0.017314620971679687	0.004192432880401611	0		0.4822147216796875	-2.59199658203125	0		-0.9801425170898438	0.15200758361816405	0		-0.33965716552734376	-3.314134765625	0		1.71028515625	-1.392231201171875	0		2.83911083984375	-0.4914080505371094	0		3.996677001953125	0.14488888549804688	0		6.009712890625	0.5623034057617188	0		-0.17335964965820314	5.94260693359375	0		
0.014453700065612793	0.001257202982902527	0		0.5343040771484375	-2.599528076171875	0		-0.9141589965820313	0.13432675170898437	0		-0.3323927001953125	-3.3051787109375	0		1.6623817138671875	-1.3986806640625	0		2.8331845703125	-0.5003138732910156	0		3.97478515625	0.1391552734375	0		6.00678759765625	0.5533612060546875	0		-0.2364698486328125	5.9163232421875	0		
-0.04243504333496094	-0.0010707969665527343	0		0.4794796447753906	-2.59587841796875	0		-0.9491031494140625	0.12676087951660156	0		-0.357099853515625	-3.2908544921875	0		1.70045458984375	-1.4050382080078125	0		2.85921484375	-0.5105414428710937	0		3.980578369140625	0.10714553833007813	0		6.002841796875	0.5454578857421875	0		-0.22120980834960938	5.92721435546875	0		
0.010645597457885743	-0.002570312023162842	0		0.5085744323730469	-2.596117431640625	0		-0.9502252807617187	0.10684689331054688	0		-0.3886976013183594	-3.262434814453125	0		1.658552734375	-1.4045072021484375	0		2.841365234375	-0.5052698974609375	0		3.99458544921875	0.09907168579101562	0		6.00801171875	0.552482421875	0		-0.20601210021972657	5.9371259765625	0		
-0.03827154159545899	0.002053961992263794	0		0.4846927185058594	-2.588763427734375	0		-0.9442433471679688	0.10187425231933593	0		-0.3714505920410156	-3.243527099609375	0		1.7024483642578125	-1.4178865966796874	0		2.861033203125	-0.5393861083984375	0		4.00847998046875	0.0860206298828125	0		6.0121337890625	0.56054248046875	0		-0.22010383605957032	5.92637158203125	0		
0.014695557594299316	0.0015911129713058472	0		0.5386017456054687	-2.5952353515625	0		-0.9104161987304688	0.08861549377441406	0		-0.37020095825195315	-3.21842919921875	0		1.691433837890625	-1.4166517333984374	0		2.86615625	-0.5253220825195313	0		4.0101787109375	0.06112155151367187	0		6.0121025390625	0.560669921875	0		-0.22014959716796875	5.92648193359375	0		
-0.04243497467041016	-6.641770005226135E-4	0		0.50163134765625	-2.5837060546875	0		-0.911734375	0.06875144958496093	0		-0.3809431762695312	-3.18618603515625	0		1.701185546875	-1.43062548828125	0		2.87290478515625	-0.5392589721679687	0		4.024934814453125	0.04810099792480469	0		6.0089013671875	0.551852783203125	0		-0.1872101593017578	5.9322509765625	0		
0.010376306533813476	-0.0020960659980773927	0		0.5274242553710937	-2.5878427734375	0		-0.9250277709960938	0.05803017807006836	0		-0.44775234985351564	-3.15332275390625	0		1.6989853515625	-1.43345361328125	0		2.865635498046875	-0.5480269775390625	0		4.02954248046875	0.0282076416015625	0		6.01263720703125	0.5439808349609375	0		-0.24042137145996093	5.93196533203125	0		
-0.04285610198974609	-3.68149995803833E-4	0		0.48620654296875	-2.58624169921875	0		-0.950370361328125	0.04945025634765625	0		-0.39682061767578125	-3.138723388671875	0		1.7205841064453125	-1.44852587890625	0		2.9151298828125	-0.5723945922851562	0		4.04406689453125	0.0072232670783996585	0		6.02137646484375	0.5430740966796875	0		-0.23873565673828126	5.92909716796875	0		
0.01386091423034668	0.002181432008743286	0		0.4899561767578125	-2.582115478515625	0		-0.9319432983398438	0.025405576705932617	0		-0.480489013671875	-3.080655517578125	0		1.7023375244140626	-1.4431529541015624	0		2.914059814453125	-0.5501978149414063	0		4.07567626953125	7.06629976630211E-5	0		6.01715771484375	0.5523265380859375	0		-0.18990972900390626	5.94573095703125	0		
0.01652400779724121	0.005325189113616943	0		0.5008141174316406	-2.563054931640625	0		-0.9074329223632812	0.014304314613342285	0		-0.4185216979980469	-3.05215478515625	0		1.7568590087890625	-1.4545552978515626	0		2.89635107421875	-0.581810791015625	0		4.086099853515625	-0.018838363647460936	0		6.0167841796875	0.55255517578125	0		-0.1874820098876953	5.9318740234375	0		
0.009031444549560548	-0.0014143290519714356	0		0.5062825622558593	-2.57592919921875	0		-0.9609984130859375	0.0010519859790802002	0		-0.48455850219726565	-3.019264404296875	0		1.75442431640625	-1.4573310546875	0		2.9220029296875	-0.5758773803710937	0		4.1013994140625	-0.04478653717041016	0		6.01127490234375	0.5448560791015625	0		-0.2210342254638672	5.9254130859375	0		
-0.04441321182250976	3.470439910888672E-4	0		0.49595223999023436	-2.5666259765625	0		-0.9116538696289063	-0.017307167053222657	0		-0.4685293884277344	-2.9772548828125	0		1.752810791015625	-1.4731083984375	0		2.937366943359375	-0.592823974609375	0		4.11078857421875	-0.058658790588378903	0		6.01979833984375	0.5440206909179688	0		-0.18750051879882812	5.93123388671875	0		
0.005048892021179199	-0.003998322010040283	0		0.4435727233886719	-2.55886669921875	0		-0.9923023681640625	-0.031264034271240235	0		-0.5295800170898437	-2.939413330078125	0		1.762283935546875	-1.477999267578125	0		2.96691357421875	-0.5899149169921875	0		4.13815380859375	-0.0717163314819336	0		6.01929931640625	0.5442937622070313	0		-0.24108961486816408	5.9299951171875	0		
0.011609044075012207	0.0031199541091918945	0		0.5010807189941406	-2.5602900390625	0		-0.9119718627929687	-0.04595439910888672	0		-0.5296009521484375	-2.897229736328125	0		1.7797034912109375	-1.4859730224609375	0		2.951182373046875	-0.610515869140625	0		4.1434228515625	-0.09153129577636719	0		6.01877685546875	0.5445742797851563	0		-0.22274456787109376	5.9249814453125	0		
0.01108328628540039	0.003312309980392456	0		0.4469300231933594	-2.52851220703125	0		-0.9546661987304688	-0.061324386596679686	0		-0.5465983276367188	-2.85186572265625	0		1.779200439453125	-1.485753662109375	0		3.0026201171875	-0.6148365478515625	0		4.16176611328125	-0.10348438262939454	0		6.01824267578125	0.5448584594726562	0		-0.22237165832519531	5.92415966796875	0		
